<?xml version="1.0" standalone="no"?>
<!DOCTYPE svg PUBLIC "-//W3C//DTD SVG 20010904//EN"
 "http://www.w3.org/TR/2001/REC-SVG-20010904/DTD/svg10.dtd">
<svg version="1.0" xmlns="http://www.w3.org/2000/svg"
 width="1024.000000pt" height="1024.000000pt" viewBox="0 0 1024.000000 1024.000000"
 preserveAspectRatio="xMidYMid meet">
<metadata>
Created by potrace 1.11, written by Peter Selinger 2001-2013
</metadata>
<g transform="translate(0.000000,1024.000000) scale(0.100000,-0.100000)"
fill="#000000" stroke="none">
<path d="M6355 8182 c-16 -1 -64 -9 -105 -18 -41 -8 -85 -16 -98 -19 -13 -2
-31 -6 -40 -9 -9 -3 -28 -7 -42 -10 -14 -2 -57 -11 -95 -20 -39 -8 -82 -17
-95 -20 -14 -3 -34 -7 -45 -10 -11 -3 -74 -16 -140 -30 -66 -14 -192 -41 -280
-60 -88 -19 -171 -37 -185 -40 -21 -4 -394 -83 -485 -103 -16 -4 -32 -7 -35
-8 -3 0 -27 -6 -55 -13 -27 -6 -61 -14 -75 -16 -14 -3 -70 -14 -125 -26 -114
-25 -177 -38 -219 -46 -16 -3 -32 -7 -36 -9 -4 -2 -21 -7 -38 -10 -17 -3 -81
-16 -144 -29 -62 -14 -124 -27 -138 -30 -130 -26 -652 -141 -710 -157 -366
-99 -654 -427 -729 -829 -9 -51 -12 -80 -26 -242 -3 -35 -8 -81 -10 -103 -2
-22 -7 -71 -10 -110 -3 -38 -8 -83 -10 -100 -2 -16 -7 -64 -10 -105 -3 -41
-10 -120 -15 -175 -5 -55 -12 -131 -16 -169 l-5 -68 63 7 c35 3 77 9 93 11 97
15 354 10 530 -11 281 -34 614 -135 915 -278 14 -6 41 -21 60 -33 19 -11 67
-38 105 -59 63 -34 268 -168 320 -209 11 -8 56 -43 100 -77 44 -35 82 -65 85
-68 3 -4 34 -31 70 -61 36 -30 67 -57 70 -60 3 -3 34 -30 70 -60 36 -30 85
-73 110 -95 25 -22 72 -62 105 -90 91 -76 314 -267 339 -290 6 -6 72 -62 146
-125 74 -63 149 -127 165 -141 17 -15 118 -102 225 -194 107 -92 220 -190 250
-219 202 -189 507 -443 710 -590 140 -101 424 -296 468 -321 9 -5 44 -26 77
-46 33 -21 80 -49 105 -63 74 -43 278 -145 332 -167 28 -11 70 -28 92 -38 52
-24 202 -74 284 -95 144 -37 179 -46 212 -51 19 -3 42 -8 50 -10 18 -5 43 -10
190 -34 119 -20 170 -27 255 -36 28 -3 70 -8 95 -11 25 -2 153 -6 285 -9 259
-5 332 4 450 55 162 71 327 236 396 398 62 144 75 330 35 507 -51 227 -166
485 -346 780 -126 206 -252 355 -410 480 -41 33 -76 63 -78 68 -2 4 -8 7 -13
7 -8 0 -97 58 -109 70 -10 12 -208 119 -280 153 -89 41 -283 117 -302 117 -7
0 -40 10 -73 21 -63 21 -242 63 -310 74 -22 3 -67 10 -100 15 -62 10 -156 20
-213 24 -41 3 -49 11 -56 61 -3 22 -8 51 -10 65 -3 14 -7 41 -10 60 -3 19 -8
46 -10 60 -3 14 -17 95 -31 180 -34 202 -34 201 -40 230 -2 13 -7 40 -10 60
-3 20 -8 47 -10 60 -3 14 -8 41 -11 60 -3 19 -19 112 -35 205 -33 196 -37 216
-44 270 -4 22 -8 47 -10 55 -2 8 -7 31 -10 50 -3 19 -10 58 -15 85 -5 28 -11
64 -14 80 -2 17 -11 73 -21 125 -9 52 -18 106 -20 120 -5 28 -43 252 -49 290
-3 14 -19 106 -36 205 -29 172 -57 301 -78 355 -5 14 -10 27 -9 30 0 16 -101
192 -141 244 -155 204 -385 340 -642 382 -46 7 -241 11 -295 6z"/>
<path d="M2405 5104 c-130 -16 -188 -25 -196 -30 -4 -2 -24 -6 -45 -10 -36 -5
-68 -13 -179 -44 -48 -13 -89 -28 -130 -45 -16 -8 -54 -23 -84 -35 -56 -22
-252 -120 -261 -130 -3 -4 -34 -24 -69 -45 -56 -33 -246 -170 -278 -199 -6 -6
-42 -38 -79 -71 -87 -77 -206 -201 -283 -293 -34 -40 -66 -78 -71 -85 -79 -94
-220 -312 -312 -482 -140 -261 -304 -724 -352 -999 -30 -171 -25 -327 15 -466
7 -25 13 -47 14 -50 0 -3 11 -27 23 -54 12 -27 22 -51 22 -53 0 -23 116 -188
173 -246 122 -123 231 -180 387 -203 50 -7 8440 -7 8447 0 4 3 -20 6 -53 7
-82 1 -242 13 -324 24 -19 2 -57 7 -85 10 -273 32 -641 124 -855 215 -41 17
-86 35 -100 39 -27 9 -321 157 -380 192 -19 11 -55 31 -80 45 -25 13 -57 32
-72 42 -15 9 -60 37 -100 61 -127 77 -359 232 -478 319 -105 78 -369 282 -396
307 -6 5 -29 24 -50 40 -21 17 -52 42 -69 56 -16 14 -41 34 -54 45 -13 10 -45
37 -71 59 -25 22 -68 58 -95 80 -84 68 -178 148 -215 181 -19 18 -48 43 -65
55 -16 13 -37 30 -45 39 -8 8 -62 55 -120 105 -58 49 -107 92 -110 95 -3 3
-52 46 -110 95 -58 50 -114 99 -125 110 -12 11 -43 38 -70 60 -26 22 -107 92
-179 155 -72 63 -139 121 -149 130 -10 8 -28 23 -40 33 -12 10 -38 33 -57 50
-20 18 -65 57 -100 87 -36 30 -70 59 -76 65 -16 14 -132 116 -158 138 -12 10
-30 26 -42 36 -12 10 -57 45 -100 77 -43 32 -81 61 -84 64 -8 9 -89 60 -94 60
-3 0 -24 13 -48 29 -168 111 -518 253 -728 295 -41 8 -84 16 -95 19 -11 2 -47
8 -80 12 -32 4 -68 9 -80 12 -47 10 -417 9 -510 -3z"/>
<path d="M9165 1560 c5 -8 42 -6 50 1 2 3 -8 5 -25 5 -16 0 -27 -3 -25 -6z"/>
</g>
</svg>
